# xmcd
#
# Track frame offsets: 
#        182
#        18817
#        32392
#        49177
#        67510
#        84020
#        98895
#        120790
#        136892
#        156732
#        173982
#        187892
#        202435
#        223192
#        235322
#        252882
#        271485
#
# Disc length: 3817 seconds
#
# Revision: 1
# Processed by: cddbd v1.5.2PL0 Copyright (c) Steve Scherf et al.
# Submitted via: ExactAudioCopy v1.0b3
#
DISCID=e10ee711
DTITLE=Сергей Беликов - Greatest Hits. 1974-1994
DYEAR=1994
DGENRE=Pop
TTITLE0=Будь за меня спокоен (1990 г.)
TTITLE1=У беды глаза зеленые (1979 г.)
TTITLE2=Радуга (1980 г.)
TTITLE3=Сентиментальная прогулка (1975 г.)
TTITLE4=Ночная гостья (1994 г.)
TTITLE5=Снится мне деревня (1986 г.)
TTITLE6=Моя гитара
TTITLE7=Удивленный человек (1986 г.)
TTITLE8=Ноктюрн (1980 г.)
TTITLE9=Время уходит (1992 г.)
TTITLE10=Живи, родник (1985 г.)
TTITLE11=Каторга (1992 г.)
TTITLE12=Ласковые руки (1992 г.)
TTITLE13=Не могу забыть (1990 г.)
TTITLE14=Удивительные кони (1990 г.)
TTITLE15=Что ж ты меня не доглядела (1994 г.)
TTITLE16=Кончается шампанское (1992 г.)
EXTD=
EXTT0=
EXTT1=
EXTT2=
EXTT3=
EXTT4=
EXTT5=
EXTT6=
EXTT7=
EXTT8=
EXTT9=
EXTT10=
EXTT11=
EXTT12=
EXTT13=
EXTT14=
EXTT15=
EXTT16=
PLAYORDER=
